<?xml version="1.0" encoding="UTF-8"?>
<svg width="800px" height="800px" viewBox="0 0 24 24" version="1.1" xmlns="http://www.w3.org/2000/svg">
    <g stroke="none" stroke-width="1" fill="none" fill-rule="evenodd">
        <path d="M4,2 L20,2 C21.1045695,2 22,2.8954305 22,4 L22,20 C22,21.1045695 21.1045695,22 20,22 L4,22 C2.8954305,22 2,21.1045695 2,20 L2,4 C2,2.8954305 2.8954305,2 4,2 Z M4,4 L4,20 L20,20 L20,4 L4,4 Z M6,6 L18,6 L18,8 L6,8 L6,6 Z M6,11 L18,11 L18,13 L6,13 L6,11 Z M6,16 L18,16 L18,18 L6,18 L6,16 Z" fill="#6366f1"></path>
    </g>
</svg>
