<?xml version="1.0" encoding="UTF-8"?>
<svg width="800px" height="800px" viewBox="0 0 24 24" version="1.1" xmlns="http://www.w3.org/2000/svg">
    <g stroke="none" stroke-width="1" fill="none" fill-rule="evenodd">
        <path d="M3,3 L21,3 C21.5522847,3 22,3.44771525 22,4 L22,20 C22,20.5522847 21.5522847,21 21,21 L3,21 C2.44771525,21 2,20.5522847 2,20 L2,4 C2,3.44771525 2.44771525,3 3,3 Z M4,5 L4,19 L20,19 L20,5 L4,5 Z M6,7 L18,7 L18,9 L6,9 L6,7 Z M6,11 L10,11 L10,17 L6,17 L6,11 Z M12,11 L18,11 L18,17 L12,17 L12,11 Z" fill="#a855f7"></path>
    </g>
</svg>
