<?xml version="1.0" encoding="UTF-8"?>
<svg width="800px" height="800px" viewBox="0 0 24 24" version="1.1" xmlns="http://www.w3.org/2000/svg">
    <g stroke="none" stroke-width="1" fill="none" fill-rule="evenodd">
        <path d="M12,2 L12,4 C7.581722,4 4,7.581722 4,12 C4,16.418278 7.581722,20 12,20 L12,22 C6.4771525,22 2,17.5228475 2,12 C2,6.4771525 6.4771525,2 12,2 Z M12,7 C14.7614237,7 17,9.23857625 17,12 C17,14.7614237 14.7614237,17 12,17 L12,15 C13.6568542,15 15,13.6568542 15,12 C15,10.3431458 13.6568542,9 12,9 L12,7 Z M17.6568542,4.92893219 L19.0710678,6.34314575 L17.6568542,7.75735931 L16.2426407,6.34314575 L17.6568542,4.92893219 Z M19.0710678,17.6568542 L17.6568542,19.0710678 L16.2426407,17.6568542 L17.6568542,16.2426407 L19.0710678,17.6568542 Z" fill="#a855f7"></path>
    </g>
</svg>
