<?xml version="1.0" encoding="UTF-8"?>
<svg width="24" height="24" viewBox="0 0 24 24" fill="none" xmlns="http://www.w3.org/2000/svg">
  <path d="M19.27 5.33C17.94 4.71 16.5 4.26 15 4C14.89 4.19 14.76 4.46 14.67 4.68C13.06 4.44 11.46 4.44 9.87 4.68C9.78 4.46 9.64 4.19 9.53 4C8.03 4.26 6.59 4.71 5.26 5.33C2.53 9.34 1.77 13.22 2.15 17.03C3.97 18.36 5.73 19.18 7.46 19.72C7.79 19.27 8.09 18.78 8.35 18.27C7.77 18.06 7.22 17.79 6.69 17.47C6.79 17.4 6.89 17.33 6.98 17.25C10.18 18.74 13.73 18.74 16.89 17.25C16.98 17.33 17.08 17.4 17.18 17.47C16.65 17.79 16.09 18.06 15.51 18.27C15.77 18.78 16.07 19.27 16.4 19.72C18.13 19.18 19.89 18.36 21.71 17.03C22.16 12.57 20.97 8.73 19.27 5.33ZM8.57 14.84C7.55 14.84 6.71 13.91 6.71 12.78C6.71 11.64 7.53 10.71 8.57 10.71C9.61 10.71 10.45 11.64 10.43 12.78C10.43 13.91 9.61 14.84 8.57 14.84ZM15.29 14.84C14.27 14.84 13.43 13.91 13.43 12.78C13.43 11.64 14.25 10.71 15.29 10.71C16.33 10.71 17.17 11.64 17.15 12.78C17.15 13.91 16.33 14.84 15.29 14.84Z" fill="white"/>
</svg>
