<?xml version="1.0" encoding="UTF-8"?>
<svg width="24" height="24" viewBox="0 0 24 24" fill="none" xmlns="http://www.w3.org/2000/svg">
  <path d="M13.54 12C13.54 15.31 10.85 18 7.54 18C4.23 18 1.54 15.31 1.54 12C1.54 8.69 4.23 6 7.54 6C10.85 6 13.54 8.69 13.54 12ZM20.96 12C20.96 15.09 19.61 17.6 17.93 17.6C16.25 17.6 14.9 15.09 14.9 12C14.9 8.91 16.25 6.4 17.93 6.4C19.61 6.4 20.96 8.91 20.96 12ZM22.5 12C22.5 14.73 21.99 16.94 21.37 16.94C20.75 16.94 20.24 14.73 20.24 12C20.24 9.27 20.75 7.06 21.37 7.06C21.99 7.06 22.5 9.27 22.5 12Z" fill="white"/>
</svg>
