<?xml version="1.0" encoding="UTF-8"?>
<svg width="24" height="24" viewBox="0 0 24 24" fill="none" xmlns="http://www.w3.org/2000/svg">
  <path d="M22 4.01C21.5 4.25 20.95 4.42 20.37 4.5C20.98 4.15 21.44 3.59 21.65 2.92C21.1 3.25 20.48 3.48 19.83 3.61C19.31 3.05 18.56 2.71 17.72 2.71C16.11 2.71 14.82 4 14.82 5.61C14.82 5.87 14.85 6.12 14.9 6.35C12.44 6.22 10.24 5.06 8.78 3.26C8.5 3.74 8.34 4.3 8.34 4.89C8.34 6.02 8.92 7.02 9.79 7.59C9.32 7.58 8.88 7.45 8.5 7.23V7.27C8.5 8.69 9.48 9.88 10.79 10.18C10.52 10.25 10.23 10.29 9.94 10.29C9.73 10.29 9.53 10.27 9.33 10.23C9.74 11.4 10.82 12.25 12.11 12.27C11.11 13.06 9.85 13.52 8.48 13.52C8.22 13.52 7.96 13.5 7.71 13.47C9.01 14.32 10.56 14.81 12.23 14.81C17.71 14.81 20.72 10.34 20.72 6.46C20.72 6.32 20.72 6.18 20.71 6.04C21.27 5.64 21.75 5.14 22.14 4.57L22 4.01Z" fill="white"/>
</svg>
